<?xml version="1.0" encoding="UTF-8" standalone="no"?>
<!DOCTYPE svg PUBLIC "-//W3C//DTD SVG 1.1//EN"
 "http://www.w3.org/Graphics/SVG/1.1/DTD/svg11.dtd">
<!-- Generated by graphviz version 14.1.3 (0)
 -->
<!-- Title: audioRender Pages: 1 -->
<svg width="195pt" height="332pt"
 viewBox="0.00 0.00 195.00 332.00" xmlns="http://www.w3.org/2000/svg" xmlns:xlink="http://www.w3.org/1999/xlink">
<g id="graph0" class="graph" transform="scale(1 1) rotate(0) translate(4 328)">
<title>audioRender</title>
<polygon fill="white" stroke="none" points="-4,4 -4,-328 190.64,-328 190.64,4 -4,4"/>
<!-- audioRender -->
<g id="node1" class="node">
<title>audioRender</title>
<ellipse fill="none" stroke="black" cx="93.32" cy="-306" rx="58" ry="18"/>
<text xml:space="preserve" text-anchor="middle" x="93.32" y="-300.95" font-family="Times,serif" font-size="14.00">audioRender</text>
</g>
<!-- MixMachine -->
<g id="node2" class="node">
<title>MixMachine</title>
<ellipse fill="none" stroke="black" cx="93.32" cy="-234" rx="59.54" ry="18"/>
<text xml:space="preserve" text-anchor="middle" x="93.32" y="-228.95" font-family="Times,serif" font-size="14.00">MixMachine</text>
</g>
<!-- audioRender&#45;&gt;MixMachine -->
<g id="edge1" class="edge">
<title>audioRender&#45;&gt;MixMachine</title>
<path fill="none" stroke="black" d="M93.32,-287.7C93.32,-280.41 93.32,-271.73 93.32,-263.54"/>
<polygon fill="black" stroke="black" points="96.82,-263.62 93.32,-253.62 89.82,-263.62 96.82,-263.62"/>
</g>
<!-- MixTranslator -->
<g id="node3" class="node">
<title>MixTranslator</title>
<ellipse fill="none" stroke="black" cx="93.32" cy="-162" rx="64.66" ry="18"/>
<text xml:space="preserve" text-anchor="middle" x="93.32" y="-156.95" font-family="Times,serif" font-size="14.00">MixTranslator</text>
</g>
<!-- MixMachine&#45;&gt;MixTranslator -->
<g id="edge2" class="edge">
<title>MixMachine&#45;&gt;MixTranslator</title>
<path fill="none" stroke="black" d="M93.32,-215.7C93.32,-208.41 93.32,-199.73 93.32,-191.54"/>
<polygon fill="black" stroke="black" points="96.82,-191.62 93.32,-181.62 89.82,-191.62 96.82,-191.62"/>
</g>
<!-- CapReader -->
<g id="node4" class="node">
<title>CapReader</title>
<ellipse fill="none" stroke="black" cx="93.32" cy="-90" rx="51.86" ry="18"/>
<text xml:space="preserve" text-anchor="middle" x="93.32" y="-84.95" font-family="Times,serif" font-size="14.00">CapReader</text>
</g>
<!-- MixTranslator&#45;&gt;CapReader -->
<g id="edge3" class="edge">
<title>MixTranslator&#45;&gt;CapReader</title>
<path fill="none" stroke="black" d="M93.32,-143.7C93.32,-136.41 93.32,-127.73 93.32,-119.54"/>
<polygon fill="black" stroke="black" points="96.82,-119.62 93.32,-109.62 89.82,-119.62 96.82,-119.62"/>
</g>
<!-- MixBinaryCapnpData -->
<g id="node5" class="node">
<title>MixBinaryCapnpData</title>
<ellipse fill="none" stroke="black" cx="93.32" cy="-18" rx="93.32" ry="18"/>
<text xml:space="preserve" text-anchor="middle" x="93.32" y="-12.95" font-family="Times,serif" font-size="14.00">MixBinaryCapnpData</text>
</g>
<!-- CapReader&#45;&gt;MixBinaryCapnpData -->
<g id="edge4" class="edge">
<title>CapReader&#45;&gt;MixBinaryCapnpData</title>
<path fill="none" stroke="black" d="M93.32,-71.7C93.32,-64.41 93.32,-55.73 93.32,-47.54"/>
<polygon fill="black" stroke="black" points="96.82,-47.62 93.32,-37.62 89.82,-47.62 96.82,-47.62"/>
</g>
</g>
</svg>
