<?xml version="1.0" encoding="UTF-8" standalone="no"?>
<!DOCTYPE svg PUBLIC "-//W3C//DTD SVG 1.1//EN"
 "http://www.w3.org/Graphics/SVG/1.1/DTD/svg11.dtd">
<!-- Generated by graphviz version 14.1.3 (0)
 -->
<!-- Title: PDJE_Interface_Tree Pages: 1 -->
<svg width="779pt" height="404pt"
 viewBox="0.00 0.00 779.00 404.00" xmlns="http://www.w3.org/2000/svg" xmlns:xlink="http://www.w3.org/1999/xlink">
<g id="graph0" class="graph" transform="scale(1 1) rotate(0) translate(4 400)">
<title>PDJE_Interface_Tree</title>
<polygon fill="white" stroke="none" points="-4,4 -4,-400 775.01,-400 775.01,4 -4,4"/>
<!-- PDJE -->
<g id="node1" class="node">
<title>PDJE</title>
<ellipse fill="none" stroke="black" cx="167.1" cy="-378" rx="31.9" ry="18"/>
<text xml:space="preserve" text-anchor="middle" x="167.1" y="-372.95" font-family="Times,serif" font-size="14.00">PDJE</text>
</g>
<!-- Search_Tools -->
<g id="node2" class="node">
<title>Search_Tools</title>
<ellipse fill="none" stroke="black" cx="110.1" cy="-306" rx="61.08" ry="18"/>
<text xml:space="preserve" text-anchor="middle" x="110.1" y="-300.95" font-family="Times,serif" font-size="14.00">Search_Tools</text>
</g>
<!-- PDJE&#45;&gt;Search_Tools -->
<g id="edge1" class="edge">
<title>PDJE&#45;&gt;Search_Tools</title>
<path fill="none" stroke="black" d="M154.17,-361.12C147.3,-352.68 138.68,-342.1 130.9,-332.55"/>
<polygon fill="black" stroke="black" points="133.76,-330.52 124.73,-324.97 128.33,-334.94 133.76,-330.52"/>
</g>
<!-- Player -->
<g id="node3" class="node">
<title>Player</title>
<ellipse fill="none" stroke="black" cx="224.1" cy="-306" rx="34.46" ry="18"/>
<text xml:space="preserve" text-anchor="middle" x="224.1" y="-300.95" font-family="Times,serif" font-size="14.00">Player</text>
</g>
<!-- PDJE&#45;&gt;Player -->
<g id="edge2" class="edge">
<title>PDJE&#45;&gt;Player</title>
<path fill="none" stroke="black" d="M180.03,-361.12C187.1,-352.43 196.02,-341.49 203.97,-331.72"/>
<polygon fill="black" stroke="black" points="206.66,-333.96 210.26,-323.99 201.23,-329.54 206.66,-333.96"/>
</g>
<!-- Player_ON_OFF -->
<g id="node4" class="node">
<title>Player_ON_OFF</title>
<ellipse fill="none" stroke="black" cx="122.1" cy="-234" rx="73.87" ry="18"/>
<text xml:space="preserve" text-anchor="middle" x="122.1" y="-228.95" font-family="Times,serif" font-size="14.00">Player_ON_OFF</text>
</g>
<!-- Player&#45;&gt;Player_ON_OFF -->
<g id="edge3" class="edge">
<title>Player&#45;&gt;Player_ON_OFF</title>
<path fill="none" stroke="black" d="M203.95,-291.17C189.97,-281.58 171.04,-268.59 154.91,-257.51"/>
<polygon fill="black" stroke="black" points="157.26,-254.89 147.04,-252.11 153.3,-260.66 157.26,-254.89"/>
</g>
<!-- FXController -->
<g id="node5" class="node">
<title>FXController</title>
<ellipse fill="none" stroke="black" cx="134.1" cy="-162" rx="60.56" ry="18"/>
<text xml:space="preserve" text-anchor="middle" x="134.1" y="-156.95" font-family="Times,serif" font-size="14.00">FXController</text>
</g>
<!-- Player&#45;&gt;FXController -->
<g id="edge4" class="edge">
<title>Player&#45;&gt;FXController</title>
<path fill="none" stroke="black" d="M223.94,-287.58C222.99,-268.58 219.17,-237.95 205.1,-216 197.04,-203.43 184.89,-192.77 172.91,-184.39"/>
<polygon fill="black" stroke="black" points="174.96,-181.55 164.68,-178.98 171.12,-187.4 174.96,-181.55"/>
</g>
<!-- MusicController -->
<g id="node6" class="node">
<title>MusicController</title>
<ellipse fill="none" stroke="black" cx="342.1" cy="-234" rx="72.34" ry="18"/>
<text xml:space="preserve" text-anchor="middle" x="342.1" y="-228.95" font-family="Times,serif" font-size="14.00">MusicController</text>
</g>
<!-- Player&#45;&gt;MusicController -->
<g id="edge5" class="edge">
<title>Player&#45;&gt;MusicController</title>
<path fill="none" stroke="black" d="M246.29,-291.83C262.89,-281.99 285.97,-268.3 305.31,-256.82"/>
<polygon fill="black" stroke="black" points="306.92,-259.94 313.73,-251.83 303.34,-253.92 306.92,-259.94"/>
</g>
<!-- FX_ON_OFF -->
<g id="node7" class="node">
<title>FX_ON_OFF</title>
<ellipse fill="none" stroke="black" cx="62.1" cy="-90" rx="62.1" ry="18"/>
<text xml:space="preserve" text-anchor="middle" x="62.1" y="-84.95" font-family="Times,serif" font-size="14.00">FX_ON_OFF</text>
</g>
<!-- FXController&#45;&gt;FX_ON_OFF -->
<g id="edge6" class="edge">
<title>FXController&#45;&gt;FX_ON_OFF</title>
<path fill="none" stroke="black" d="M117.04,-144.41C108.07,-135.69 96.91,-124.85 87,-115.21"/>
<polygon fill="black" stroke="black" points="89.73,-112.99 80.13,-108.53 84.86,-118.01 89.73,-112.99"/>
</g>
<!-- FX_arg_setter -->
<g id="node8" class="node">
<title>FX_arg_setter</title>
<ellipse fill="none" stroke="black" cx="206.1" cy="-90" rx="63.63" ry="18"/>
<text xml:space="preserve" text-anchor="middle" x="206.1" y="-84.95" font-family="Times,serif" font-size="14.00">FX_arg_setter</text>
</g>
<!-- FXController&#45;&gt;FX_arg_setter -->
<g id="edge7" class="edge">
<title>FXController&#45;&gt;FX_arg_setter</title>
<path fill="none" stroke="black" d="M151.16,-144.41C160.13,-135.69 171.29,-124.85 181.2,-115.21"/>
<polygon fill="black" stroke="black" points="183.34,-118.01 188.07,-108.53 178.46,-112.99 183.34,-118.01"/>
</g>
<!-- MusicController&#45;&gt;FXController -->
<g id="edge13" class="edge">
<title>MusicController&#45;&gt;FXController</title>
<path fill="none" stroke="black" d="M300.51,-219C266.88,-207.69 219.44,-191.72 183.81,-179.73"/>
<polygon fill="black" stroke="black" points="185.19,-176.5 174.59,-176.63 182.95,-183.13 185.19,-176.5"/>
</g>
<!-- Load_Music -->
<g id="node10" class="node">
<title>Load_Music</title>
<ellipse fill="none" stroke="black" cx="271.1" cy="-162" rx="58" ry="18"/>
<text xml:space="preserve" text-anchor="middle" x="271.1" y="-156.95" font-family="Times,serif" font-size="14.00">Load_Music</text>
</g>
<!-- MusicController&#45;&gt;Load_Music -->
<g id="edge9" class="edge">
<title>MusicController&#45;&gt;Load_Music</title>
<path fill="none" stroke="black" d="M324.91,-216.05C316.15,-207.42 305.34,-196.76 295.71,-187.27"/>
<polygon fill="black" stroke="black" points="298.3,-184.9 288.72,-180.37 293.38,-189.88 298.3,-184.9"/>
</g>
<!-- Unload_Music -->
<g id="node11" class="node">
<title>Unload_Music</title>
<ellipse fill="none" stroke="black" cx="413.1" cy="-162" rx="66.19" ry="18"/>
<text xml:space="preserve" text-anchor="middle" x="413.1" y="-156.95" font-family="Times,serif" font-size="14.00">Unload_Music</text>
</g>
<!-- MusicController&#45;&gt;Unload_Music -->
<g id="edge10" class="edge">
<title>MusicController&#45;&gt;Unload_Music</title>
<path fill="none" stroke="black" d="M359.29,-216.05C367.92,-207.54 378.54,-197.07 388.07,-187.68"/>
<polygon fill="black" stroke="black" points="390.33,-190.36 394.99,-180.85 385.41,-185.38 390.33,-190.36"/>
</g>
<!-- ON_OFF_Music -->
<g id="node12" class="node">
<title>ON_OFF_Music</title>
<ellipse fill="none" stroke="black" cx="571.1" cy="-162" rx="73.87" ry="18"/>
<text xml:space="preserve" text-anchor="middle" x="571.1" y="-156.95" font-family="Times,serif" font-size="14.00">ON_OFF_Music</text>
</g>
<!-- MusicController&#45;&gt;ON_OFF_Music -->
<g id="edge11" class="edge">
<title>MusicController&#45;&gt;ON_OFF_Music</title>
<path fill="none" stroke="black" d="M386.52,-219.42C423.38,-208.15 475.98,-192.08 515.6,-179.97"/>
<polygon fill="black" stroke="black" points="516.42,-183.37 524.96,-177.1 514.37,-176.68 516.42,-183.37"/>
</g>
<!-- Cue_Music -->
<g id="node13" class="node">
<title>Cue_Music</title>
<ellipse fill="none" stroke="black" cx="717.1" cy="-162" rx="53.91" ry="18"/>
<text xml:space="preserve" text-anchor="middle" x="717.1" y="-156.95" font-family="Times,serif" font-size="14.00">Cue_Music</text>
</g>
<!-- MusicController&#45;&gt;Cue_Music -->
<g id="edge12" class="edge">
<title>MusicController&#45;&gt;Cue_Music</title>
<path fill="none" stroke="black" d="M404,-224.26C467.2,-214.93 567.96,-198.89 654.1,-180 657.92,-179.16 661.86,-178.24 665.81,-177.27"/>
<polygon fill="black" stroke="black" points="666.61,-180.68 675.44,-174.83 664.89,-173.9 666.61,-180.68"/>
</g>
<!-- change_FX_value -->
<g id="node9" class="node">
<title>change_FX_value</title>
<ellipse fill="none" stroke="black" cx="206.1" cy="-18" rx="77.97" ry="18"/>
<text xml:space="preserve" text-anchor="middle" x="206.1" y="-12.95" font-family="Times,serif" font-size="14.00">change_FX_value</text>
</g>
<!-- FX_arg_setter&#45;&gt;change_FX_value -->
<g id="edge8" class="edge">
<title>FX_arg_setter&#45;&gt;change_FX_value</title>
<path fill="none" stroke="black" d="M206.1,-71.7C206.1,-64.41 206.1,-55.73 206.1,-47.54"/>
<polygon fill="black" stroke="black" points="209.6,-47.62 206.1,-37.62 202.6,-47.62 209.6,-47.62"/>
</g>
</g>
</svg>
