<?xml version="1.0" encoding="UTF-8" standalone="no"?>
<!DOCTYPE svg PUBLIC "-//W3C//DTD SVG 1.1//EN"
 "http://www.w3.org/Graphics/SVG/1.1/DTD/svg11.dtd">
<!-- Generated by graphviz version 14.1.3 (0)
 -->
<!-- Title: MixTranslator Pages: 1 -->
<svg width="181pt" height="260pt"
 viewBox="0.00 0.00 181.00 260.00" xmlns="http://www.w3.org/2000/svg" xmlns:xlink="http://www.w3.org/1999/xlink">
<g id="graph0" class="graph" transform="scale(1 1) rotate(0) translate(4 256)">
<title>MixTranslator</title>
<polygon fill="white" stroke="none" points="-4,4 -4,-256 176.51,-256 176.51,4 -4,4"/>
<!-- MixTranslator -->
<g id="node1" class="node">
<title>MixTranslator</title>
<ellipse fill="none" stroke="black" cx="68.34" cy="-234" rx="64.66" ry="18"/>
<text xml:space="preserve" text-anchor="middle" x="68.34" y="-228.95" font-family="Times,serif" font-size="14.00">MixTranslator</text>
</g>
<!-- MIX -->
<g id="node2" class="node">
<title>MIX</title>
<ellipse fill="none" stroke="black" cx="29.34" cy="-162" rx="29.34" ry="18"/>
<text xml:space="preserve" text-anchor="middle" x="29.34" y="-156.95" font-family="Times,serif" font-size="14.00">MIX</text>
</g>
<!-- MixTranslator&#45;&gt;MIX -->
<g id="edge1" class="edge">
<title>MixTranslator&#45;&gt;MIX</title>
<path fill="none" stroke="black" d="M58.9,-216.05C54.43,-208.03 48.99,-198.26 44,-189.3"/>
<polygon fill="black" stroke="black" points="47.09,-187.66 39.17,-180.63 40.98,-191.07 47.09,-187.66"/>
</g>
<!-- BPM -->
<g id="node3" class="node">
<title>BPM</title>
<ellipse fill="none" stroke="black" cx="107.34" cy="-162" rx="30.88" ry="18"/>
<text xml:space="preserve" text-anchor="middle" x="107.34" y="-156.95" font-family="Times,serif" font-size="14.00">BPM</text>
</g>
<!-- MixTranslator&#45;&gt;BPM -->
<g id="edge2" class="edge">
<title>MixTranslator&#45;&gt;BPM</title>
<path fill="none" stroke="black" d="M77.78,-216.05C82.26,-208.03 87.7,-198.26 92.69,-189.3"/>
<polygon fill="black" stroke="black" points="95.71,-191.07 97.52,-180.63 89.6,-187.66 95.71,-191.07"/>
</g>
<!-- BpmStruct -->
<g id="node4" class="node">
<title>BpmStruct</title>
<ellipse fill="none" stroke="black" cx="107.34" cy="-90" rx="51.35" ry="18"/>
<text xml:space="preserve" text-anchor="middle" x="107.34" y="-84.95" font-family="Times,serif" font-size="14.00">BpmStruct</text>
</g>
<!-- BPM&#45;&gt;BpmStruct -->
<g id="edge3" class="edge">
<title>BPM&#45;&gt;BpmStruct</title>
<path fill="none" stroke="black" d="M107.34,-143.7C107.34,-136.41 107.34,-127.73 107.34,-119.54"/>
<polygon fill="black" stroke="black" points="110.84,-119.62 107.34,-109.62 103.84,-119.62 110.84,-119.62"/>
</g>
<!-- BpmFragment -->
<g id="node5" class="node">
<title>BpmFragment</title>
<ellipse fill="none" stroke="black" cx="107.34" cy="-18" rx="65.17" ry="18"/>
<text xml:space="preserve" text-anchor="middle" x="107.34" y="-12.95" font-family="Times,serif" font-size="14.00">BpmFragment</text>
</g>
<!-- BpmStruct&#45;&gt;BpmFragment -->
<g id="edge4" class="edge">
<title>BpmStruct&#45;&gt;BpmFragment</title>
<path fill="none" stroke="black" d="M107.34,-71.7C107.34,-64.41 107.34,-55.73 107.34,-47.54"/>
<polygon fill="black" stroke="black" points="110.84,-47.62 107.34,-37.62 103.84,-47.62 110.84,-47.62"/>
</g>
</g>
</svg>
